<svg height="24" viewBox="0 0 6.3499998 6.3499998" width="24" xmlns="http://www.w3.org/2000/svg"><g stroke-width=".264583"><path d="m2.1328578 3.1741385q0 .2514921-.079237.4633656-.0792375.210151-.2256542.3617353-.1446941.1515843-.3496774.2359892-.2049833.0844049-.4547529.0844049h-.83371362v-2.2875449h.83371362q.2497696 0 .4547529.084405.2049833.084405.3496774.2359892.1464167.1515843.2256539.3617353.079237.2101509.079237.4599205zm-.4599206 0q0-.1825902-.044786-.3272843-.0447865-.1446941-.1291914-.2463245-.0826823-.1016304-.2032608-.1550294-.1205784-.0551215-.2721627-.0551215h-.37896072v1.569242h.37896072q.1515843 0 .2721627-.053399.1205785-.0533991.2032608-.1550294.0844049-.1016304.1291912-.2463245.0447862-.1464167.0447862-.3307294z"/><path d="m4.3084371 4.0991472q-.1722549.1291912-.3669029.1877579-.194648.056844-.4134117.056844-.2773304 0-.5029843-.086128-.2239314-.0878494-.3841284-.2428788-.160197-.1567519-.248047-.370348-.0861275-.2153186-.0861275-.4702558 0-.2566598.082682-.4702558.0826827-.2153186.2359896-.370348.1550294-.1550294.3720705-.2411569.2187637-.086127.4874813-.086127.1395265 0 .2601049.022393.1205784.022393.2239314.062012.1033529.039619.1877578.09474.086127.055122.1550294.1223009l-.1291912.2032605q-.029283.048231-.079237.060289-.048231.010335-.1050755-.024116-.053399-.032728-.106798-.060289-.053399-.029283-.1154108-.049954-.060289-.022393-.1343588-.034451-.07407-.012058-.1705323-.012058-.1619196 0-.2911108.056844-.1291912.055122-.2204863.1567519-.091295.1016304-.141249.2480471-.048231.1446941-.048231.3221166 0 .1929255.053399.3445098.053399.1515843.1498617.2566597.098185.103353.2359892.1584745.1378039.053399.3066137.053399.1136882 0 .2032608-.022393.091295-.024116.1791451-.065457v-.3996306h-.26355q-.041341 0-.067179-.024116-.024116-.024116-.024116-.058567v-.2549365h.7648117v.9370665z"/><path d="m6.1601773 2.0320886v.3686255h-.6166725v1.9189194h-.4513078v-1.9189194h-.6166725v-.3686255z"/></g></svg>