<svg height="24" viewBox="0 0 .96 .96" width="24" xmlns="http://www.w3.org/2000/svg"><g transform="matrix(.00206585 0 0 .00206585 .62712 -.672908)"><path d="m24 24v4h-16v-4h-2v4a2 2 0 0 0 2 2h16a2 2 0 0 0 2-2v-4z" transform="matrix(14.521875 0 0 14.521875 -303.56484 325.72935)"/><path d="m17 14h-2v8.172l-2.586-2.586-1.414 1.414 5 5 5-5-1.414-1.414-2.586 2.586z" transform="matrix(14.521875 0 0 14.521875 -303.56484 325.72935)"/><path d="m-303.56484 325.72935h464.7v464.7h-464.7z" fill="none" stroke-width="14.521875"/><path d="m-204.15234 481.80859q-6.5625 3.375-13.78125 5.0625-7.21875 1.6875-15.1875 1.6875-28.3125 0-43.21875-18.65625-14.90625-18.65625-14.90625-53.90625 0-35.34375 14.90625-54 14.90625-18.65625 43.21875-18.65625 7.96875 0 15.28125 1.6875 7.3125 1.6875 13.6875 5.0625v30.75q-7.125-6.5625-13.875-9.5625-6.65625-3.09375-13.78125-3.09375-15.1875 0-22.96875 12.09375-7.6875 12-7.6875 35.71875 0 23.625 7.6875 35.71875 7.78125 12 22.96875 12 7.125 0 13.78125-3 6.75-3.09375 13.875-9.65625z"/><path d="m-132.15234 371.18359-13.03125 57.28125h26.15625zm-16.875-25.3125h33.84375l37.781246 139.96875h-27.656246l-8.625-34.59375h-37.03125l-8.4375 34.59375h-27.65625z"/><path d="m-16.558594 368.18359q-10.59375 0-15.46875 11.34375-4.875 11.25-4.875 36.46875 0 25.125 4.875 36.46875 4.875 11.25 15.46875 11.25 10.6875003 0 15.56250025-11.25 4.87500005-11.34375 4.87500005-36.46875 0-25.21875-4.87500005-36.46875-4.87499995-11.34375-15.56250025-11.34375zm-49.125 47.8125q0-35.90625 12.375-54.28125 12.46875-18.375 36.75-18.375 24.3750002 0 36.75 18.375 12.46875 18.375 12.46875 54.28125 0 35.8125-12.46875 54.1875-12.3749998 18.375-36.75 18.375-24.28125 0-36.75-18.375-12.375-18.375-12.375-54.1875z"/><path d="m84.128906 369.12109v41.0625h11.34375q13.593754 0 19.031254-4.59375 5.53125-4.59375 5.53125-15.9375 0-11.34375-5.53125-15.9375-5.4375-4.59375-19.031254-4.59375zm-27.65625-23.25h37.96875q28.968754 0 41.625004 10.3125 12.75 10.3125 12.75 33.46875 0 23.15625-12.75 33.46875-12.65625 10.3125-41.625004 10.3125h-10.3125v52.40625h-27.65625z"/></g></svg>