<svg height="24" viewBox="0 0 24 24" width="24" xmlns="http://www.w3.org/2000/svg"><g fill-rule="evenodd"><path d="m21.18981 11.844127c-1.090999-.506099-2.903123-.422762-5.003383.183777l.152895.885979c1.943366-.56123 3.542532-.628228 4.416682-.222722.874149.405505 1.206317 1.064874 1.179513 1.494644-.0134.214883-.08986.375791-.262244.52437-.172386.148584-.466.282983-.917875.311908-.903749.05785-2.39889-.336947-4.403264-1.669495l-.536622.789753c2.08945 1.389107 3.700176 1.876357 4.900004 1.799549.599916-.0384 1.106877-.225984 1.483201-.550335.376323-.324353.597114-.787029.625673-1.245021.05712-.915981-.543581-1.796308-1.63458-2.302407z" fill="#d00000" stroke="#4a0000" stroke-width=".380644"/><path d="m16.245713 12.088767-2.223951.13853-9.6229528-7.0941083c-.7639716 1.8075154 2.4686553 4.5663761 4.8985102 6.3071913l3.8493656 2.837779 3.349736-.226528z" fill="#d5d5d5" stroke="#717171" stroke-linejoin="round" stroke-width=".570965"/><path d="m15.292934 15.555969-.726152.608363c1.431322 1.923411 1.918017 3.442223 1.851613 4.319161-.0332.43847-.171268.725496-.338964.912323-.167689.186831-.375453.289758-.626853.313457-.502742.04747-1.167943-.272719-1.544254-1.129178-.376312-.856456-.462098-2.255004.266052-4.279062l-.831586-.237995c-.788546 2.191944-.743189 3.853476-.252846 4.969453.490341 1.115977 1.427305 1.680581 2.349919 1.593467.461306-.04356.921992-.26279 1.264527-.644403.342532-.381614.556454-.909333.602952-1.523383.093-1.2281-.514528-2.886671-2.014406-4.902205z" fill="#d00000" stroke="#4a0000" stroke-width=".380644"/></g><path d="m20 2-5.131346 1.339985-5.916769 6.891965-4.951885 5.76805-2 4" fill="none" stroke="#2b3b4d" stroke-linecap="round" stroke-linejoin="round" stroke-width="1.5"/><path d="m13.475501 16.566029-4.6486918-15.2806489c3.4413288 4.2362898 4.7374998 9.6658179 6.5289648 14.8887579z" fill="#d5d5d5" fill-rule="evenodd" stroke="#717171" stroke-linejoin="round" stroke-width=".570965"/><g fill="#eeeeec" stroke="#2b3b4d" stroke-linecap="round"><circle cx="14.838553" cy="3.695993" r="1.714287"/><circle cx="4.18132" cy="15.594523" r="1.714287"/></g></svg>