<svg height="24" viewBox="0 0 .72 .72" width="24" xmlns="http://www.w3.org/2000/svg" xmlns:xlink="http://www.w3.org/1999/xlink"><linearGradient id="a" gradientUnits="userSpaceOnUse" x1=".212832" x2=".292032" y1=".145593" y2=".400203"><stop offset="0" stop-color="#eee"/><stop offset="1" stop-color="#aec7e2"/></linearGradient><g stroke="#2b3b4d" stroke-linecap="round" stroke-linejoin="round"><g fill="none" transform="matrix(1.3333335 0 0 1.3333335 -.246693 -.248816)"><path d="m.53481974.60485694a.08000001.08000001 0 0 1 .14930002-.04" stroke-width=".03"/><path d="m14 8h5v-5" stroke-width="3" transform="matrix(.01 0 0 .01 .49482 .484857)"/></g><g fill="none" transform="matrix(1.3333331 0 0 1.3333331 -.247171 -.227044)"><path d="m.69481974.60485694a.08000001.08000001 0 0 1 -.14930001.04" stroke-width=".03"/><path d="m10 16h-5v5" stroke-width="3" transform="matrix(.01 0 0 .01 .49482 .484857)"/></g><path d="m.02203216.22020272c0 .54.27.09.405.09.09 0 .27.18.27-.045 0-.36-.19791-.14355-.315-.18-.08739-.02718-.36-.18-.36.135z" fill="url(#a)" fill-rule="evenodd" stroke-width=".045"/></g></svg>